# xmcd
#
# Track frame offsets:
#	150
#	14507
#	27412
#	37475
#	50395
#	61352
#	76472
#	90265
#	102882
#	121572
#	136817
#	150287
#	164150
#	178162
#	191365
#	201865
#	211427
#	222617
#	231440
#	245342
#	257357
#	268830
#	283197
#	292817
#
# Disc length: 4024 seconds
# Revision: 2
# Processed by: cddbd v1.5.2PL0 Copyright (c) Steve Scherf et al.
# Submitted via: dBpowerAMP V12.0
#
DISCID=5f0fb618
DTITLE=Sara and Maybelle Carter - Sara and Maybelle Carter
DYEAR=1991
DGENRE=Country
TTITLE0=Higher Ground
TTITLE1=Lonesome Pine Special
TTITLE2=The Hand That Rocked the Cradle
TTITLE3=Goin' Home
TTITLE4=The Ship That Never Returned
TTITLE5=Three Little Strangers
TTITLE6=Sun of the Soul
TTITLE7=Weary Prodigal Son
TTITLE8=While the Band Is Playing Dixie
TTITLE9=Farther On
TTITLE10=No More Goodbyes
TTITLE11=Happiest Days of All
TTITLE12=Charlie Brooks
TTITLE13=I Told Them What You're Fighting For
TTITLE14=We All Miss You Joe
TTITLE15=San Antonio Rose
TTITLE16=Mama's Irish Jig
TTITLE17=Black Mountain Rag
TTITLE18=Let's Be Lovers Again
TTITLE19=Give Me Your Love and I'll Give You Mine
TTITLE20=A Letter from Home
TTITLE21=There's a Mother Always Waiting
TTITLE22=Tom Cat's Kitten
TTITLE23=Kitty Puss
EXTD=
EXTT0=
EXTT1=
EXTT2=
EXTT3=
EXTT4=
EXTT5=
EXTT6=
EXTT7=
EXTT8=
EXTT9=
EXTT10=
EXTT11=
EXTT12=
EXTT13=
EXTT14=
EXTT15=
EXTT16=
EXTT17=
EXTT18=
EXTT19=
EXTT20=
EXTT21=
EXTT22=
EXTT23=
PLAYORDER=
